HIERARCHY
ROOT SpineBase
{
  OFFSET 0.000000 0.000000 0.000000
  CHANNELS 6 Xposition Yposition Zposition Zrotation Xrotation Yrotation
  JOINT SpineMid
  {
    OFFSET 0.000000 29.382146 0.000000
    CHANNELS 3 Zrotation Xrotation Yrotation
    JOINT SpineShoulder
    {
      OFFSET 0.126404 21.807649 -0.744252
      CHANNELS 3 Zrotation Xrotation Yrotation
      JOINT Neck
      {
        OFFSET 0.084684 7.229233 -0.586471
        CHANNELS 3 Zrotation Xrotation Yrotation
        JOINT Head
        {
          OFFSET 4.351585 13.810999 1.378519
          CHANNELS 3 Zrotation Xrotation Yrotation
          End Site
          {
            OFFSET 0 0 0
          }
        }
      }
      JOINT ShoulderLeft
      {
        OFFSET -9.524375 -2.542746 -12.573891
        CHANNELS 3 Zrotation Xrotation Yrotation
        JOINT ElbowLeft
        {
          OFFSET -4.614585 -24.051254 -5.454861
          CHANNELS 3 Zrotation Xrotation Yrotation
          JOINT WristLeft
          {
            OFFSET 4.441591 -22.608779 -2.855834
            CHANNELS 3 Zrotation Xrotation Yrotation
            JOINT HandLeft
            {
              OFFSET 0.604704 -4.735526 0.144996
              CHANNELS 3 Zrotation Xrotation Yrotation
              JOINT HandTipLeft
              {
                OFFSET 1.273768 -6.661469 1.210294
                CHANNELS 3 Zrotation Xrotation Yrotation
                End Site
                {
                  OFFSET 0 0 0
                }
              }
              JOINT ThumbLeft
              {
                OFFSET 3.172379 2.048735 1.587803
                CHANNELS 3 Zrotation Xrotation Yrotation
                End Site
                {
                  OFFSET 0 0 0
                }
              }
            }
          }
        }
      }
      JOINT ShoulderRight
      {
        OFFSET 11.581147 -4.789389 9.498768
        CHANNELS 3 Zrotation Xrotation Yrotation
        JOINT ElbowRight
        {
          OFFSET 1.132481 -27.174436 4.199152
          CHANNELS 3 Zrotation Xrotation Yrotation
          JOINT WristRight
          {
            OFFSET 1.548511 -24.532656 -6.104499
            CHANNELS 3 Zrotation Xrotation Yrotation
            JOINT HandRight
            {
              OFFSET -1.465559 -3.141335 0.845000
              CHANNELS 3 Zrotation Xrotation Yrotation
              JOINT HandTipRight
              {
                OFFSET -1.016400 -4.021746 -0.727191
                CHANNELS 3 Zrotation Xrotation Yrotation
                End Site
                {
                  OFFSET 0 0 0
                }
              }
              JOINT ThumbRight
              {
                OFFSET -2.402780 2.516354 -4.033600
                CHANNELS 3 Zrotation Xrotation Yrotation
                End Site
                {
                  OFFSET 0 0 0
                }
              }
            }
          }
        }
      }
    }
  }
  JOINT HipLeft
  {
    OFFSET -4.421976 2.048203 -7.741569
    CHANNELS 3 Zrotation Xrotation Yrotation
    JOINT KneeLeft
    {
      OFFSET -8.114789 -26.426887 -0.660090
      CHANNELS 3 Zrotation Xrotation Yrotation
      JOINT AnkleLeft
      {
        OFFSET -6.239418 -35.118053 6.257935
        CHANNELS 3 Zrotation Xrotation Yrotation
        JOINT FootLeft
        {
          OFFSET 8.763885 -3.096042 -12.295715
          CHANNELS 3 Zrotation Xrotation Yrotation
          End Site
          {
            OFFSET 0 0 0
          }
        }
      }
    }
  }
  JOINT HipRight
  {
    OFFSET 5.106124 0.026712 0.881757
    CHANNELS 3 Zrotation Xrotation Yrotation
    JOINT KneeRight
    {
      OFFSET -3.261124 -27.199341 5.776285
      CHANNELS 3 Zrotation Xrotation Yrotation
      JOINT AnkleRight
      {
        OFFSET -11.770983 -32.233638 1.410363
        CHANNELS 3 Zrotation Xrotation Yrotation
        JOINT FootRight
        {
          OFFSET 1.648204 -8.391342 -5.226759
          CHANNELS 3 Zrotation Xrotation Yrotation
          End Site
          {
            OFFSET 0 0 0
          }
        }
      }
    }
  }
}
MOTION
Frames: 9
Frame Time: 0.033333
-24.976159 69.944591 331.865999 -15.104995 2.411520 -38.931624 0.381601 -0.275956 38.669087 0.415314 -0.196584 -0.701391 4.102231 22.009139 -3.048504 0.000000 0.000000 0.000000 -4.074793 15.696002 4.349961 53.459909 -1.427441 6.329472 18.281458 14.669805 2.284490 -4.406397 -2.241747 9.031364 0.000000 0.000000 0.000000 0.000000 0.000000 0.000000 4.952082 -3.380233 -0.585904 10.121826 -5.984427 0.835980 26.323197 31.236694 -14.913113 -9.814926 -32.571914 7.014353 0.000000 0.000000 0.000000 0.000000 0.000000 0.000000 4.207641 13.139626 37.064320 -3.269479 -19.983793 1.837697 -13.546620 -21.337367 12.011178 0.000000 0.000000 0.000000 6.785155 13.020071 38.186596 10.944950 -9.134103 3.740511 13.799591 16.628409 -13.862643 0.000000 0.000000 0.000000
-25.227687 69.766011 331.965569 -15.031017 1.826093 -38.856843 0.548368 -0.316739 38.509907 0.472509 -0.220252 -0.687811 3.664441 20.262681 -2.439493 0.000000 0.000000 0.000000 -3.427951 12.608227 4.321954 44.953693 -1.169497 3.422129 13.720870 13.730769 2.119741 -2.926725 -2.189980 7.267593 0.000000 0.000000 0.000000 0.000000 0.000000 0.000000 6.488544 0.520977 0.098135 13.242552 3.713409 0.082298 33.562463 31.575524 -20.358482 -21.659497 -41.662621 4.654031 0.000000 0.000000 0.000000 0.000000 0.000000 0.000000 4.804689 14.507812 36.754046 -3.989040 -11.588725 1.092123 -14.707832 -29.335548 10.256897 0.000000 0.000000 0.000000 6.220071 13.147132 38.023900 11.135217 -8.809822 3.677034 9.528448 9.279750 -11.395640 0.000000 0.000000 0.000000
-25.343643 69.571647 332.054734 -14.796365 1.256808 -38.608464 0.657266 -0.259361 38.198299 0.561250 -0.221600 -0.660911 3.187878 19.279229 -2.101498 0.000000 0.000000 0.000000 -2.345313 9.526709 4.096027 32.137354 -0.380331 1.259509 10.955609 5.521534 2.549194 0.830556 2.209800 5.269186 0.000000 0.000000 0.000000 0.000000 0.000000 0.000000 8.541667 3.761384 0.671264 17.688270 13.568056 -2.160201 22.317344 28.895940 -22.238392 -8.904002 -33.559330 9.903191 0.000000 0.000000 0.000000 0.000000 0.000000 0.000000 3.976828 14.787707 36.479779 -4.005985 -5.581200 0.343001 -9.727134 -28.353620 12.038040 0.000000 0.000000 0.000000 5.298320 13.035332 37.670881 11.753315 -8.677264 3.805557 5.279474 0.668259 -9.620217 0.000000 0.000000 0.000000
-25.601634 69.259389 331.736696 -14.273338 0.465303 -39.033171 0.695838 -0.138537 38.552642 0.521006 -0.053047 -0.614485 2.585129 18.488584 -1.826558 0.000000 0.000000 0.000000 -2.021448 6.702419 4.071876 18.785951 -0.558141 -0.058579 13.562122 0.212933 1.330261 -0.194513 7.076653 3.287268 0.000000 0.000000 0.000000 0.000000 0.000000 0.000000 10.098380 6.668151 1.020552 21.738839 21.320764 -4.818321 23.110271 28.827108 -27.878020 -8.093492 -26.819263 8.872803 0.000000 0.000000 0.000000 0.000000 0.000000 0.000000 2.261708 15.454309 36.859268 -2.071435 -1.184685 0.393345 -7.252541 -26.927358 7.490798 0.000000 0.000000 0.000000 4.575879 12.833865 38.033241 11.952614 -8.154985 3.702807 1.415111 -7.290040 -8.564138 0.000000 0.000000 0.000000
-26.051961 68.851396 331.135012 -13.690014 -0.335794 -39.736312 0.669463 -0.020551 39.194351 0.439331 0.124473 -0.571183 2.175456 18.079224 -1.677384 0.000000 0.000000 0.000000 -2.541595 4.409305 4.274264 6.711839 -0.850705 -0.693954 15.194319 -6.592543 -1.030287 -3.626299 11.904006 2.253858 0.000000 0.000000 0.000000 0.000000 0.000000 0.000000 11.523522 6.984734 1.098134 27.566400 28.016070 -9.180636 23.241858 30.602618 -36.321292 -1.162228 -24.683424 15.345983 0.000000 0.000000 0.000000 0.000000 0.000000 0.000000 0.146477 15.947490 37.589219 0.365063 1.411919 0.704640 -3.407396 -22.708998 2.698931 0.000000 0.000000 0.000000 4.302829 12.702091 38.731676 11.733888 -7.622389 3.501895 -4.085586 -16.551069 -7.609266 0.000000 0.000000 0.000000
-26.498452 68.489203 330.282753 -13.040995 -0.985676 -40.989407 0.696495 0.073972 40.407101 0.413231 0.204997 -0.530350 1.666309 18.067840 -1.631854 0.000000 0.000000 0.000000 -3.717206 2.308664 4.588892 -3.103078 -0.437107 -0.795544 15.875516 -13.985507 -4.444471 -5.934555 16.036192 2.757043 0.000000 0.000000 0.000000 0.000000 0.000000 0.000000 12.007507 7.155501 1.072443 34.410141 31.455804 -13.744625 29.168471 33.919946 -47.784488 1.227120 -27.778634 21.432569 0.000000 0.000000 0.000000 0.000000 0.000000 0.000000 -1.498997 15.863805 38.941226 2.187675 2.494421 0.990246 -2.585534 -21.312393 -0.473418 0.000000 0.000000 0.000000 4.334889 12.466914 40.035565 11.334944 -7.052875 3.255025 -4.074015 -17.554130 -8.319736 0.000000 0.000000 0.000000
-27.067343 68.132831 328.890395 -12.175440 -1.809454 -42.222587 0.571676 0.187362 41.608412 0.367404 0.327272 -0.482354 1.088251 17.898873 -1.556558 0.000000 0.000000 0.000000 -4.922580 0.961983 4.835543 -9.667938 -0.768230 -0.900653 4.704672 -15.308594 -8.869547 3.922262 17.334110 1.746728 0.000000 0.000000 0.000000 0.000000 0.000000 0.000000 11.774974 4.533367 0.874437 38.770806 31.566773 -17.166920 48.217695 37.002023 -56.802456 -8.184517 -37.859408 15.712995 0.000000 0.000000 0.000000 0.000000 0.000000 0.000000 -2.409291 15.208303 40.319710 3.414383 2.238269 1.228126 -2.570733 -18.489153 -1.754094 0.000000 0.000000 0.000000 4.710880 11.970657 41.346219 10.667893 -6.142918 2.870160 3.696021 -4.798857 -10.955382 0.000000 0.000000 0.000000
-27.719942 67.811186 327.132453 -11.244646 -2.642457 -43.328488 0.314781 0.306569 42.704368 0.285778 0.475623 -0.436649 0.693731 16.946757 -1.363018 0.000000 0.000000 0.000000 -6.177299 -0.028128 5.066716 -13.626619 -1.879970 -1.449977 -7.803167 -11.536011 -10.519572 12.372184 17.291768 0.414546 0.000000 0.000000 0.000000 0.000000 0.000000 0.000000 10.285266 0.853319 0.527071 42.640804 29.731721 -19.515478 69.638697 37.091422 -70.536398 -16.473158 -48.438996 12.257501 0.000000 0.000000 0.000000 0.000000 0.000000 0.000000 -2.420231 14.147489 41.612147 3.751419 2.911352 0.993159 -3.381380 -17.586476 -3.031414 0.000000 0.000000 0.000000 5.515442 11.270676 42.569404 10.113375 -4.957375 2.426625 5.427806 2.015189 -12.025259 0.000000 0.000000 0.000000
-28.394535 67.423491 325.401692 -10.545147 -3.432660 -44.118007 0.167716 0.310002 43.471385 0.244950 0.451436 -0.412000 0.368173 15.978817 -1.034377 0.000000 0.000000 0.000000 -7.377546 -0.165769 5.368095 -14.637554 -2.905687 -2.182982 -14.991044 -6.826813 -8.828196 17.874254 12.889370 -1.901978 0.000000 0.000000 0.000000 0.000000 0.000000 0.000000 8.670923 -3.270805 0.049076 43.167591 25.385667 -19.710123 85.172442 32.363167 -104.360156 11.458242 -63.531000 53.583020 0.000000 0.000000 0.000000 0.000000 0.000000 0.000000 -1.682577 13.267639 42.591785 3.449721 3.536525 0.617366 -3.786321 -16.054620 -3.240684 0.000000 0.000000 0.000000 6.509466 10.819270 43.480428 9.553473 -3.967056 2.057128 6.459435 5.835746 -13.195218 0.000000 0.000000 0.000000
